<svg xmlns="http://www.w3.org/2000/svg" width="385.708251953125" height="349.656982421875" viewBox="-77.95752716064453 -81.86953735351562 385.708251953125 349.656982421875"><title>Neo4j Graph Visualization</title><desc>Created using Neo4j (http://www.neo4j.com/)</desc><g class="layer relationships"><g class="relationship" transform="translate(33.418818457519784 0.09861103254954873) rotate(376.9743179532319)"><path class="outline" fill="#A5ABB6" stroke="none" d="M 24.018736134675446,-6.953439040707552 L 24.277555179777966,-5.987513214418485 A 139.08953778033228 139.08953778033228 0 0 1 47.39831803084742,-10.129393960097616 L 47.30572833138831,-11.125098307559284 A 140.08953778033228 140.08953778033228 0 0 0 24.018736134675446,-6.953439040707552 Z M 69.37128608058646,-11.431345153263834 L 69.30636538991351,-10.433454726452084 A 139.08953778033228 139.08953778033228 0 0 1 92.53317046367448,-6.934829711916726 L 91.83743314698032,-4.016619714990664 L 99.45828334261766,-5.797810972451357 L 93.46082021926671,-10.825776374484809 L 92.76508290257254,-7.907566377558747 A 140.08953778033228 140.08953778033228 0 0 0 69.37128608058646,-11.431345153263834"/><text text-anchor="middle" pointer-events="none" font-size="8px" fill="#000000" x="58.339406419815816" y="-8.213431986652779" font-family="sans-serif">road</text></g><g class="relationship" transform="translate(151.8032745727875 36.2343552360284) rotate(374.4039126937935)"><path class="outline" fill="#A5ABB6" stroke="none" d="M 21.40063509461097,-12.933012701892217 L 21.90063509461097,-12.06698729810778 A 84.22193522081412 84.22193522081412 0 0 1 39.14344582557507,-19.595471995382155 L 38.848176465945144,-20.550886044506257 A 85.22193522081412 85.22193522081412 0 0 0 21.40063509461097,-12.933012701892217 Z M 84.98864347462259,-21.72854290224913 L 84.74249744760206,-20.7593101472403 A 84.22193522081412 84.22193522081412 0 0 1 102.34691085449982,-14.120241512259712 L 100.98140050203735,-11.449028028219583 L 108.80732737600387,-11.379252937187296 L 104.16759132444979,-17.681859490979885 L 102.80208097198731,-15.010646006939757 A 85.22193522081412 85.22193522081412 0 0 0 84.98864347462259,-21.72854290224913"/><text text-anchor="middle" pointer-events="none" font-size="8px" fill="#000000" x="61.849923549328174" y="-20.823004963194037" font-family="sans-serif">twowheeler</text></g><g class="relationship" transform="translate(278.75076348142437 68.83817127921213) rotate(219.1460336479406)"><path class="outline" fill="#A5ABB6" stroke="none" d="M 21.40063509461097,12.933012701892217 L 21.90063509461097,12.06698729810778 A 46.89550449091676 46.89550449091676 0 0 0 22.232823780690836,12.256973590384689 L 21.73990737409037,13.12705026292803 A 47.89550449091676 47.89550449091676 0 0 1 21.40063509461097,12.933012701892217 Z M 66.01440083924773,14.661872175824925 L 65.58291956101841,13.759750284649677 A 46.89550449091676 46.89550449091676 0 0 0 65.92746713886142,13.593223767196335 L 64.61098190074367,10.89751113083873 L 72.43687749671545,10.97071031764787 L 67.68278078968507,17.18750728233981 L 66.36629555156732,14.491794645982203 A 47.89550449091676 47.89550449091676 0 0 1 66.01440083924773,14.661872175824925"/><text text-anchor="middle" pointer-events="none" font-size="8px" fill="#000000" x="43.70635864083494" y="21.821340795703392" transform="rotate(180 43.70635864083494 18.821340795703392)" font-family="sans-serif">twowhee…</text></g><g class="relationship" transform="translate(205.15117847792843 8.927160126419945) rotate(466.7993576454911)"><path class="outline" fill="#A5ABB6" stroke="none" d="M 25 0.5 L 61.65137095476955 0.5 L 61.65137095476955 -0.5 L 25 -0.5 Z M 80.98730845476955 0.5 L 117.6386794095391 0.5 L 117.6386794095391 3.5 L 124.6386794095391 0 L 117.6386794095391 -3.5 L 117.6386794095391 -0.5 L 80.98730845476955 -0.5 Z"/><text text-anchor="middle" pointer-events="none" font-size="8px" fill="#000000" x="71.31933970476955" y="3" transform="rotate(180 71.31933970476955 0)" font-family="sans-serif">trek</text></g><g class="relationship" transform="translate(33.418818457519784 0.09861103254954873) rotate(376.9743179532319)"><path class="outline" fill="#A5ABB6" stroke="none" d="M 24.018736134675446,6.953439040707552 L 24.277555179777966,5.987513214418485 A 139.08953778033228 139.08953778033228 0 0 0 48.726261081137615,10.246462226050141 L 48.64321877878315,11.243008249081527 A 140.08953778033228 140.08953778033228 0 0 1 24.018736134675446,6.953439040707552 Z M 68.03103850025713,11.512090893729606 L 67.97568488790827,10.513624080260115 A 139.08953778033228 139.08953778033228 0 0 0 92.53317046367448,6.934829711916726 L 91.83743314698032,4.016619714990664 L 99.45828334261766,5.797810972451357 L 93.46082021926671,10.825776374484809 L 92.76508290257254,7.907566377558747 A 140.08953778033228 140.08953778033228 0 0 1 68.03103850025713,11.512090893729606"/><text text-anchor="middle" pointer-events="none" font-size="8px" fill="#000000" x="58.33940641981586" y="14.213431986652779" font-family="sans-serif">trek</text></g><g class="relationship" transform="translate(151.8032745727875 36.2343552360284) rotate(374.4039126937935)"><path class="outline" fill="#A5ABB6" stroke="none" d="M 25 0.5 L 51.0278604965025 0.5 L 51.0278604965025 -0.5 L 25 -0.5 Z M 73.0395792465025 0.5 L 99.067439743005 0.5 L 99.067439743005 3.5 L 106.067439743005 0 L 99.067439743005 -3.5 L 99.067439743005 -0.5 L 73.0395792465025 -0.5 Z"/><text text-anchor="middle" pointer-events="none" font-size="8px" fill="#000000" x="62.0337198715025" y="3" font-family="sans-serif">road</text></g><g class="relationship" transform="translate(151.8032745727875 36.2343552360284) rotate(374.4039126937935)"><path class="outline" fill="#A5ABB6" stroke="none" d="M 21.40063509461097,12.933012701892217 L 21.90063509461097,12.06698729810778 A 84.22193522081412 84.22193522081412 0 0 0 52.289713337619226,22.530880120565186 L 52.1505347573994,23.521147419231568 A 85.22193522081412 85.22193522081412 0 0 1 21.40063509461097,12.933012701892217 Z M 71.55208222196796,24.016338883552365 L 71.46360172105688,23.020260974471697 A 84.22193522081412 84.22193522081412 0 0 0 102.34691085449982,14.120241512259712 L 100.98140050203735,11.449028028219583 L 108.80732737600387,11.379252937187296 L 104.16759132444979,17.681859490979885 L 102.80208097198731,15.010646006939757 A 85.22193522081412 85.22193522081412 0 0 1 71.55208222196796,24.016338883552365"/><text text-anchor="middle" pointer-events="none" font-size="8px" fill="#000000" x="61.849923549328174" y="26.823004963194037" font-family="sans-serif">trek</text></g><g class="relationship" transform="translate(278.75076348142437 68.83817127921213) rotate(219.1460336479406)"><path class="outline" fill="#A5ABB6" stroke="none" d="M 25 0.5 L 32.94471535818109 0.5 L 32.94471535818109 -0.5 L 25 -0.5 Z M 54.95643410818109 0.5 L 62.901149466362185 0.5 L 62.901149466362185 3.5 L 69.90114946636218 0 L 62.901149466362185 -3.5 L 62.901149466362185 -0.5 L 54.95643410818109 -0.5 Z"/><text text-anchor="middle" pointer-events="none" font-size="8px" fill="#000000" x="43.95057473318109" y="3" transform="rotate(180 43.95057473318109 0)" font-family="sans-serif">road</text></g><g class="relationship" transform="translate(278.75076348142437 68.83817127921213) rotate(219.1460336479406)"><path class="outline" fill="#A5ABB6" stroke="none" d="M 21.40063509461097,-12.933012701892217 L 21.90063509461097,-12.06698729810778 A 46.89550449091676 46.89550449091676 0 0 1 34.26329471670616,-17.020823548920212 L 34.02691613961866,-17.99248458461841 A 47.89550449091676 47.89550449091676 0 0 0 21.40063509461097,-12.933012701892217 Z M 53.41996218190874,-18.664764935989318 L 53.251437496186504,-17.67906750254322 A 46.89550449091676 46.89550449091676 0 0 1 65.92746713886142,-13.593223767196335 L 64.61098190074367,-10.89751113083873 L 72.43687749671545,-10.97071031764787 L 67.68278078968507,-17.18750728233981 L 66.36629555156732,-14.491794645982203 A 47.89550449091676 47.89550449091676 0 0 0 53.41996218190874,-18.664764935989318"/><text text-anchor="middle" pointer-events="none" font-size="8px" fill="#000000" x="43.70635864083495" y="-15.821340795703392" transform="rotate(180 43.70635864083495 -18.821340795703392)" font-family="sans-serif">trek</text></g><g class="relationship" transform="translate(33.418818457519784 0.09861103254954873) rotate(319.6887376610731)"><path class="outline" fill="#A5ABB6" stroke="none" d="M 21.40063509461097,12.933012701892217 L 21.90063509461097,12.06698729810778 A 33.20037657074309 33.20037657074309 0 0 0 27.84742867537226,14.759334112696049 L 27.526546932301965,15.706453380245904 A 34.20037657074309 34.20037657074309 0 0 1 21.40063509461097,12.933012701892217 Z M 46.86599757980385,16.476186164181982 L 46.62140453614195,15.506560337900417 A 33.20037657074309 33.20037657074309 0 0 0 52.76336503236552,13.295360092550297 L 51.47459576596947,10.586287598504967 L 59.29932906287063,10.73974388663374 L 54.481724054226916,16.907456751277405 L 53.192954787830864,14.198384257232075 A 34.20037657074309 34.20037657074309 0 0 1 46.86599757980385,16.476186164181982"/><text text-anchor="middle" pointer-events="none" font-size="8px" fill="#000000" x="37.160570076224346" y="19.988333072429683" font-family="sans-serif">trek</text></g><g class="relationship" transform="translate(95.85182651846013 -52.869532107248325) rotate(389.48335653036327)"><path class="outline" fill="#A5ABB6" stroke="none" d="M 25 0.5 L 49.61176426508705 0.5 L 49.61176426508705 -0.5 L 25 -0.5 Z M 68.94770176508705 0.5 L 93.5594660301741 0.5 L 93.5594660301741 3.5 L 100.5594660301741 0 L 93.5594660301741 -3.5 L 93.5594660301741 -0.5 L 68.94770176508705 -0.5 Z"/><text text-anchor="middle" pointer-events="none" font-size="8px" fill="#000000" x="59.27973301508705" y="3" font-family="sans-serif">trek</text></g><g class="relationship" transform="translate(33.418818457519784 0.09861103254954873) rotate(319.6887376610731)"><path class="outline" fill="#A5ABB6" stroke="none" d="M 25 0.5 L 26.431607214957538 0.5 L 26.431607214957538 -0.5 L 25 -0.5 Z M 48.44332596495754 0.5 L 49.874933179915075 0.5 L 49.874933179915075 3.5 L 56.874933179915075 0 L 49.874933179915075 -3.5 L 49.874933179915075 -0.5 L 48.44332596495754 -0.5 Z"/><text text-anchor="middle" pointer-events="none" font-size="8px" fill="#000000" x="37.43746658995754" y="3" font-family="sans-serif">road</text></g><g class="relationship" transform="translate(33.418818457519784 0.09861103254954873) rotate(319.6887376610731)"><path class="outline" fill="#A5ABB6" stroke="none" d="M 21.40063509461097,-12.933012701892217 L 21.90063509461097,-12.06698729810778 A 33.20037657074309 33.20037657074309 0 0 1 22.2519475478854,-12.266975856774064 L 21.76252912826374,-13.139024944001978 A 34.20037657074309 34.20037657074309 0 0 0 21.40063509461097,-12.933012701892217 Z M 52.81583239765693,-14.37498278022154 L 52.39726949124963,-13.466794972893194 A 33.20037657074309 33.20037657074309 0 0 1 52.76336503236552,-13.295360092550297 L 51.47459576596947,-10.586287598504967 L 59.29932906287063,-10.73974388663374 L 54.481724054226916,-16.907456751277405 L 53.192954787830864,-14.198384257232075 A 34.20037657074309 34.20037657074309 0 0 0 52.81583239765693,-14.37498278022154"/><text text-anchor="middle" pointer-events="none" font-size="8px" fill="#000000" x="37.160570076224346" y="-13.988333072429683" font-family="sans-serif">Publi…</text></g><g class="relationship" transform="translate(95.85182651846013 -52.869532107248325) rotate(494.7383718566138)"><path class="outline" fill="#A5ABB6" stroke="none" d="M 24.018736134675446,-6.953439040707552 L 24.277555179777966,-5.987513214418485 A 189.8118171082396 189.8118171082396 0 0 1 48.10764311650516,-10.761947370603593 L 47.97436993203332,-11.753026710667115 A 190.8118171082396 190.8118171082396 0 0 0 24.018736134675446,-6.953439040707552 Z M 94.44254157412357,-12.291865003173399 L 94.33228596490581,-11.297961737942813 A 189.8118171082396 189.8118171082396 0 0 1 118.26667861824261,-7.077397687985129 L 117.55762565933615,-4.162394445882985 L 125.18652834296535,-5.908774657553768 L 119.2120825634512,-10.964068677454653 L 118.50302960454475,-8.04906543535251 A 190.8118171082396 190.8118171082396 0 0 0 94.44254157412357,-12.291865003173399"/><text text-anchor="middle" pointer-events="none" font-size="8px" fill="#000000" x="71.19778809255838" y="-9.942400297722997" transform="rotate(180 71.19778809255838 -12.942400297722997)" font-family="sans-serif">twowheeler</text></g><g class="relationship" transform="translate(-9.361496058708084 53.30907031654833) rotate(420.3413563857653)"><path class="outline" fill="#A5ABB6" stroke="none" d="M 24.018736134675446,-6.953439040707552 L 24.277555179777966,-5.987513214418485 A 119.28449396439491 119.28449396439491 0 0 1 30.40394996925693,-7.456832985323132 L 30.196490447809744,-8.435076588400037 A 120.28449396439491 120.28449396439491 0 0 0 24.018736134675446,-6.953439040707552 Z M 76.5580721245878,-9.131731775438638 L 76.38009890945547,-8.14769644340251 A 119.28449396439491 119.28449396439491 0 0 1 82.54787535457777,-6.863115800266128 L 81.858836391318,-3.9433169532374666 L 89.47557915818794,-5.741991360498105 L 83.46659397225747,-10.756180929637676 L 82.7775550089977,-7.836382082609015 A 120.28449396439491 120.28449396439491 0 0 0 76.5580721245878,-9.131731775438638"/><text text-anchor="middle" pointer-events="none" font-size="8px" fill="#000000" x="53.3509080412975" y="-7.538512548756174" font-family="sans-serif">twowheeler</text></g><g class="relationship" transform="translate(46.953915809386956 152.20629677626388) rotate(359.9867281509678)"><path class="outline" fill="#A5ABB6" stroke="none" d="M 24.018736134675446,6.953439040707552 L 24.277555179777966,5.987513214418485 A 121.55656162937649 121.55656162937649 0 0 0 30.96688878997581,7.578582564195173 L 30.763100370291877,8.557597518117078 A 122.55656162937649 122.55656162937649 0 0 1 24.018736134675446,6.953439040707552 Z M 77.13193996559068,9.247828069007781 L 76.95738193871287,8.26318118039616 A 121.55656162937649 121.55656162937649 0 0 0 83.6911094494118,6.8719228880662815 L 83.0012478568801,3.9523182944355555 L 90.6184970999721,5.748846604430783 L 84.61092490612072,10.76472901290725 L 83.92106331358902,7.845124419276523 A 122.55656162937649 122.55656162937649 0 0 1 77.13193996559068,9.247828069007781"/><text text-anchor="middle" pointer-events="none" font-size="8px" fill="#000000" x="53.92201777715158" y="13.61593204515593" font-family="sans-serif">twowheeler</text></g><g class="relationship" transform="translate(95.85182651846013 -52.869532107248325) rotate(494.7383718566138)"><path class="outline" fill="#A5ABB6" stroke="none" d="M 24.018736134675446,6.953439040707552 L 24.277555179777966,5.987513214418485 A 189.8118171082396 189.8118171082396 0 0 0 61.568651379397245,12.085820301049267 L 61.50629584624959,13.08387430133476 A 190.8118171082396 190.8118171082396 0 0 1 24.018736134675446,6.953439040707552 Z M 80.88339379378385,13.308568366171158 L 80.8441984993088,12.30933679696858 A 189.8118171082396 189.8118171082396 0 0 0 118.26667861824261,7.077397687985129 L 117.55762565933615,4.162394445882985 L 125.18652834296535,5.908774657553768 L 119.2120825634512,10.964068677454653 L 118.50302960454475,8.04906543535251 A 190.8118171082396 190.8118171082396 0 0 1 80.88339379378385,13.308568366171158"/><text text-anchor="middle" pointer-events="none" font-size="8px" fill="#000000" x="71.19778809255841" y="15.942400297722997" transform="rotate(180 71.19778809255841 12.942400297722997)" font-family="sans-serif">trek</text></g><g class="relationship" transform="translate(-9.361496058708084 53.30907031654833) rotate(420.3413563857653)"><path class="outline" fill="#A5ABB6" stroke="none" d="M 24.018736134675446,6.953439040707552 L 24.277555179777966,5.987513214418485 A 119.28449396439491 119.28449396439491 0 0 0 43.74817690154005,9.50579825385644 L 43.65258629522835,10.501218987006482 A 120.28449396439491 120.28449396439491 0 0 1 24.018736134675446,6.953439040707552 Z M 63.04597159615293,10.792634895944161 L 62.98033289799031,9.794791440634896 A 119.28449396439491 119.28449396439491 0 0 0 82.54787535457777,6.863115800266128 L 81.858836391318,3.9433169532374666 L 89.47557915818794,5.741991360498105 L 83.46659397225747,10.756180929637676 L 82.7775550089977,7.836382082609015 A 120.28449396439491 120.28449396439491 0 0 1 63.04597159615293,10.792634895944161"/><text text-anchor="middle" pointer-events="none" font-size="8px" fill="#000000" x="53.350908041297515" y="13.538512548756174" font-family="sans-serif">trek</text></g><g class="relationship" transform="translate(46.953915809386956 152.20629677626388) rotate(359.9867281509678)"><path class="outline" fill="#A5ABB6" stroke="none" d="M 24.018736134675446,-6.953439040707552 L 24.277555179777966,-5.987513214418485 A 121.55656162937649 121.55656162937649 0 0 1 44.317898620745275,-9.591743973491617 L 44.2239439249822,-10.587320447271537 A 122.55656162937649 122.55656162937649 0 0 0 24.018736134675446,-6.953439040707552 Z M 63.61664634620618,-10.875993525836535 L 63.552366328434545,-9.878061624695334 A 121.55656162937649 121.55656162937649 0 0 1 83.6911094494118,-6.8719228880662815 L 83.0012478568801,-3.9523182944355555 L 90.6184970999721,-5.748846604430783 L 84.61092490612072,-10.76472901290725 L 83.92106331358902,-7.845124419276523 A 122.55656162937649 122.55656162937649 0 0 0 63.61664634620618,-10.875993525836535"/><text text-anchor="middle" pointer-events="none" font-size="8px" fill="#000000" x="53.92201777715154" y="-7.61593204515593" font-family="sans-serif">trek</text></g><g class="relationship" transform="translate(95.85182651846013 -52.869532107248325) rotate(417.8738506574132)"><path class="outline" fill="#A5ABB6" stroke="none" d="M 25 0.5 L 39.43922486232702 0.5 L 39.43922486232702 -0.5 L 25 -0.5 Z M 58.77516236232702 0.5 L 73.21438722465405 0.5 L 73.21438722465405 3.5 L 80.21438722465405 0 L 73.21438722465405 -3.5 L 73.21438722465405 -0.5 L 58.77516236232702 -0.5 Z"/><text text-anchor="middle" pointer-events="none" font-size="8px" fill="#000000" x="49.10719361232702" y="3" font-family="sans-serif">trek</text></g><g class="relationship" transform="translate(-9.361496058708084 53.30907031654833) rotate(467.9007147880293)"><path class="outline" fill="#A5ABB6" stroke="none" d="M 24.018736134675446,-6.953439040707552 L 24.277555179777966,-5.987513214418485 A 149.08152910526948 149.08152910526948 0 0 1 37.835034922473156,-8.951519525843452 L 37.66715591416837,-9.937327133123176 A 150.08152910526948 150.08152910526948 0 0 0 24.018736134675446,-6.953439040707552 Z M 84.09595978316516,-10.557728638105516 L 83.95448157645629,-9.567787267606008 A 149.08152910526948 149.08152910526948 0 0 1 97.5863191816192,-6.967096225935756 L 96.88756813167781,-4.049606385301208 L 104.51025398475672,-5.8229254161782675 L 98.51798724820772,-10.857082680115155 L 97.81923619826632,-7.939592839480606 A 150.08152910526948 150.08152910526948 0 0 0 84.09595978316516,-10.557728638105516"/><text text-anchor="middle" pointer-events="none" font-size="8px" fill="#000000" x="60.864100334635566" y="-8.553990697979145" transform="rotate(180 60.864100334635566 -11.553990697979145)" font-family="sans-serif">twowheeler</text></g><g class="relationship" transform="translate(-48.95752531636459 175.89550757054147) rotate(346.12616196331373)"><path class="outline" fill="#A5ABB6" stroke="none" d="M 21.40063509461097,12.933012701892217 L 21.90063509461097,12.06698729810778 A 50.953647986533696 50.953647986533696 0 0 0 23.627484291449765,13.019906267310844 L 23.161374881526754,13.904633354033763 A 51.953647986533696 51.953647986533696 0 0 1 21.40063509461097,12.933012701892217 Z M 68.47452321192331,15.417148566680872 L 68.06844847142551,14.503308698252248 A 50.953647986533696 50.953647986533696 0 0 0 69.85499843387625,13.667664071537605 L 68.53158743775253,10.975344748845949 L 76.35764535284406,11.028424967697564 L 71.61954642870785,17.257423168459813 L 70.29613543258414,14.565103845768157 A 51.953647986533696 51.953647986533696 0 0 1 68.47452321192331,15.417148566680872"/><text text-anchor="middle" pointer-events="none" font-size="8px" fill="#000000" x="45.660935085247196" y="22.364841616123776" font-family="sans-serif">twowheeler</text></g><g class="relationship" transform="translate(-9.361496058708084 53.30907031654833) rotate(467.9007147880293)"><path class="outline" fill="#A5ABB6" stroke="none" d="M 24.018736134675446,6.953439040707552 L 24.277555179777966,5.987513214418485 A 149.08152910526948 149.08152910526948 0 0 0 51.24685498612413,10.614124253055024 L 51.16893896749447,11.611084179050494 A 150.08152910526948 150.08152910526948 0 0 1 24.018736134675446,6.953439040707552 Z M 70.55427454875944,11.870119311705196 L 70.5030252017586,10.871433422933336 A 149.08152910526948 149.08152910526948 0 0 0 97.5863191816192,6.967096225935756 L 96.88756813167781,4.049606385301208 L 104.51025398475672,5.8229254161782675 L 98.51798724820772,10.857082680115155 L 97.81923619826632,7.939592839480606 A 150.08152910526948 150.08152910526948 0 0 1 70.55427454875944,11.870119311705196"/><text text-anchor="middle" pointer-events="none" font-size="8px" fill="#000000" x="60.86410033463561" y="14.553990697979145" transform="rotate(180 60.86410033463561 11.553990697979145)" font-family="sans-serif">trek</text></g><g class="relationship" transform="translate(-48.95752531636459 175.89550757054147) rotate(346.12616196331373)"><path class="outline" fill="#A5ABB6" stroke="none" d="M 25 0.5 L 34.89096047930393 0.5 L 34.89096047930393 -0.5 L 25 -0.5 Z M 56.90267922930393 0.5 L 66.79363970860786 0.5 L 66.79363970860786 3.5 L 73.79363970860786 0 L 66.79363970860786 -3.5 L 66.79363970860786 -0.5 L 56.90267922930393 -0.5 Z"/><text text-anchor="middle" pointer-events="none" font-size="8px" fill="#000000" x="45.89681985430393" y="3" font-family="sans-serif">road</text></g><g class="relationship" transform="translate(-48.95752531636459 175.89550757054147) rotate(346.12616196331373)"><path class="outline" fill="#A5ABB6" stroke="none" d="M 21.40063509461097,-12.933012701892217 L 21.90063509461097,-12.06698729810778 A 50.953647986533696 50.953647986533696 0 0 1 36.195047206994886,-17.651280171357982 L 35.97558476764534,-18.626901121171358 A 51.953647986533696 51.953647986533696 0 0 0 21.40063509461097,-12.933012701892217 Z M 55.37393604358995,-19.274401956717078 L 55.2200204425568,-18.28631795838566 A 50.953647986533696 50.953647986533696 0 0 1 69.85499843387625,-13.667664071537605 L 68.53158743775253,-10.975344748845949 L 76.35764535284406,-11.028424967697564 L 71.61954642870785,-17.257423168459813 L 70.29613543258414,-14.565103845768157 A 51.953647986533696 51.953647986533696 0 0 0 55.37393604358995,-19.274401956717078"/><text text-anchor="middle" pointer-events="none" font-size="8px" fill="#000000" x="45.66093508524719" y="-16.36484161612377" font-family="sans-serif">trek</text></g><g class="relationship" transform="translate(-48.95752531636459 175.89550757054147) rotate(389.2065809069115)"><path class="outline" fill="#A5ABB6" stroke="none" d="M 25 0.5 L 51.275778807231575 0.5 L 51.275778807231575 -0.5 L 25 -0.5 Z M 70.61171630723157 0.5 L 96.88749511446315 0.5 L 96.88749511446315 3.5 L 103.88749511446315 0 L 96.88749511446315 -3.5 L 96.88749511446315 -0.5 L 70.61171630723157 -0.5 Z"/><text text-anchor="middle" pointer-events="none" font-size="8px" fill="#000000" x="60.943747557231575" y="3" font-family="sans-serif">trek</text></g><g class="relationship" transform="translate(63.543991722648286 238.78743917389946) rotate(318.6350487572572)"><path class="outline" fill="#A5ABB6" stroke="none" d="M 25 0.5 L 52.3592995356386 0.5 L 52.3592995356386 -0.5 L 25 -0.5 Z M 71.6952370356386 0.5 L 99.0545365712772 0.5 L 99.0545365712772 3.5 L 106.0545365712772 0 L 99.0545365712772 -3.5 L 99.0545365712772 -0.5 L 71.6952370356386 -0.5 Z"/><text text-anchor="middle" pointer-events="none" font-size="8px" fill="#000000" x="62.0272682856386" y="3" font-family="sans-serif">trek</text></g></g><g class="layer nodes"><g class="node" transform="translate(33.418818457519784,0.09861103254954873)"><circle class="outline" cx="0" cy="0" r="25" fill="#F16667" stroke="#eb2728" stroke-width="2px"/><text text-anchor="middle" pointer-events="none" font-family="sans-serif" dy="1.5625" font-size="25" fill="#FFFFFF"/><text text-anchor="middle" pointer-events="none" x="0" y="5" font-size="10px" fill="#FFFFFF" font-family="sans-serif"> Darjeeling</text></g><g class="node" transform="translate(161.90244810578073,152.17967038934026)"><circle class="outline" cx="0" cy="0" r="25" fill="#8DCC93" stroke="#5db665" stroke-width="2px"/><text text-anchor="middle" pointer-events="none" font-family="sans-serif" dy="1.5625" font-size="25" fill="#2A2C34"/><text text-anchor="middle" pointer-events="none" x="0" y="5" font-size="10px" fill="#2A2C34" font-family="sans-serif"> Sandak…</text></g><g class="node" transform="translate(151.8032745727875,36.2343552360284)"><circle class="outline" cx="0" cy="0" r="25" fill="#D9C8AE" stroke="#c0a378" stroke-width="2px"/><text text-anchor="middle" pointer-events="none" font-family="sans-serif" dy="1.5625" font-size="25" fill="#2A2C34"/><text text-anchor="middle" pointer-events="none" x="0" y="5" font-size="10px" fill="#2A2C34" font-family="sans-serif"> Tumbling</text></g><g class="node" transform="translate(278.75076348142437,68.83817127921213)"><circle class="outline" cx="0" cy="0" r="25" fill="#D9C8AE" stroke="#c0a378" stroke-width="2px"/><text text-anchor="middle" pointer-events="none" font-family="sans-serif" dy="1.5625" font-size="25" fill="#2A2C34"/><text text-anchor="middle" pointer-events="none" x="0" y="5" font-size="10px" fill="#2A2C34" font-family="sans-serif"> Gairibus</text></g><g class="node" transform="translate(205.15117847792843,8.927160126419945)"><circle class="outline" cx="0" cy="0" r="25" fill="#D9C8AE" stroke="#c0a378" stroke-width="2px"/><text text-anchor="middle" pointer-events="none" font-family="sans-serif" dy="1.5625" font-size="25" fill="#2A2C34"/><text text-anchor="middle" pointer-events="none" x="0" y="5" font-size="10px" fill="#2A2C34" font-family="sans-serif"> BhikeBh…</text></g><g class="node" transform="translate(95.85182651846013,-52.869532107248325)"><circle class="outline" cx="0" cy="0" r="25" fill="#F16667" stroke="#eb2728" stroke-width="2px"/><text text-anchor="middle" pointer-events="none" font-family="sans-serif" dy="1.5625" font-size="25" fill="#FFFFFF"/><text text-anchor="middle" pointer-events="none" x="0" y="5" font-size="10px" fill="#FFFFFF" font-family="sans-serif"> Rimbik</text></g><g class="node" transform="translate(-9.361496058708084,53.30907031654833)"><circle class="outline" cx="0" cy="0" r="25" fill="#D9C8AE" stroke="#c0a378" stroke-width="2px"/><text text-anchor="middle" pointer-events="none" font-family="sans-serif" dy="1.5625" font-size="25" fill="#2A2C34"/><text text-anchor="middle" pointer-events="none" x="0" y="5" font-size="10px" fill="#2A2C34" font-family="sans-serif"> Sirikhola</text></g><g class="node" transform="translate(46.953915809386956,152.20629677626388)"><circle class="outline" cx="0" cy="0" r="25" fill="#D9C8AE" stroke="#c0a378" stroke-width="2px"/><text text-anchor="middle" pointer-events="none" font-family="sans-serif" dy="1.5625" font-size="25" fill="#2A2C34"/><text text-anchor="middle" pointer-events="none" x="0" y="5" font-size="10px" fill="#2A2C34" font-family="sans-serif"> Gurdum</text></g><g class="node" transform="translate(-48.95752531636459,175.89550757054147)"><circle class="outline" cx="0" cy="0" r="25" fill="#D9C8AE" stroke="#c0a378" stroke-width="2px"/><text text-anchor="middle" pointer-events="none" font-family="sans-serif" dy="1.5625" font-size="25" fill="#2A2C34"/><text text-anchor="middle" pointer-events="none" x="0" y="5" font-size="10px" fill="#2A2C34" font-family="sans-serif"> Rammam</text></g><g class="node" transform="translate(63.543991722648286,238.78743917389946)"><circle class="outline" cx="0" cy="0" r="25" fill="#8DCC93" stroke="#5db665" stroke-width="2px"/><text text-anchor="middle" pointer-events="none" font-family="sans-serif" dy="1.5625" font-size="25" fill="#2A2C34"/><text text-anchor="middle" pointer-events="none" x="0" y="5" font-size="10px" fill="#2A2C34" font-family="sans-serif"> Sabargr…</text></g></g></svg>