<svg xmlns="http://www.w3.org/2000/svg" width="654.4962768554688" height="648.5792846679688" viewBox="-233.90476989746094 -216.5061492919922 654.4962768554688 648.5792846679688"><title>Neo4j Graph Visualization</title><desc>Created using Neo4j (http://www.neo4j.com/)</desc><g class="layer relationships"><g class="relationship" transform="translate(235.4618029855686 131.9173946492733) rotate(181.43854958496968)"><path class="outline" fill="#A5ABB6" stroke="none" d="M 25 0.5 L 62.02387879018475 0.5 L 62.02387879018475 -0.5 L 25 -0.5 Z M 96.46919129018475 0.5 L 133.4930700803695 0.5 L 133.4930700803695 3.5 L 140.4930700803695 0 L 133.4930700803695 -3.5 L 133.4930700803695 -0.5 L 96.46919129018475 -0.5 Z"/><text text-anchor="middle" pointer-events="none" font-size="8px" fill="#000000" x="79.24653504018475" y="3" transform="rotate(180 79.24653504018475 0)" font-family="sans-serif">ORIGIN</text></g><g class="relationship" transform="translate(235.4618029855686 131.9173946492733) rotate(354.3955181260394)"><path class="outline" fill="#A5ABB6" stroke="none" d="M 25 0.5 L 45.34606682890305 0.5 L 45.34606682890305 -0.5 L 25 -0.5 Z M 104.53356682890305 0.5 L 124.8796336578061 0.5 L 124.8796336578061 3.5 L 131.8796336578061 0 L 124.8796336578061 -3.5 L 124.8796336578061 -0.5 L 104.53356682890305 -0.5 Z"/><text text-anchor="middle" pointer-events="none" font-size="8px" fill="#000000" x="74.93981682890305" y="3" font-family="sans-serif">DESTINATION</text></g><g class="relationship" transform="translate(172.6198321712827 297.2266733623135) rotate(238.80793495049062)"><path class="outline" fill="#A5ABB6" stroke="none" d="M 25 0.5 L 78.32855768305242 0.5 L 78.32855768305242 -0.5 L 25 -0.5 Z M 112.77387018305242 0.5 L 166.10242786610485 0.5 L 166.10242786610485 3.5 L 173.10242786610485 0 L 166.10242786610485 -3.5 L 166.10242786610485 -0.5 L 112.77387018305242 -0.5 Z"/><text text-anchor="middle" pointer-events="none" font-size="8px" fill="#000000" x="95.55121393305242" y="3" transform="rotate(180 95.55121393305242 0)" font-family="sans-serif">ORIGIN</text></g><g class="relationship" transform="translate(172.6198321712827 297.2266733623135) rotate(487.91519034230816)"><path class="outline" fill="#A5ABB6" stroke="none" d="M 25 0.5 L 33.98927547078917 0.5 L 33.98927547078917 -0.5 L 25 -0.5 Z M 93.17677547078917 0.5 L 102.16605094157833 0.5 L 102.16605094157833 3.5 L 109.16605094157833 0 L 102.16605094157833 -3.5 L 102.16605094157833 -0.5 L 93.17677547078917 -0.5 Z"/><text text-anchor="middle" pointer-events="none" font-size="8px" fill="#000000" x="63.58302547078917" y="3" transform="rotate(180 63.58302547078917 0)" font-family="sans-serif">DESTINATION</text></g><g class="relationship" transform="translate(79.28030147449805 252.0291923808366) rotate(265.73862119086397)"><path class="outline" fill="#A5ABB6" stroke="none" d="M 25 0.5 L 41.582823671562146 0.5 L 41.582823671562146 -0.5 L 25 -0.5 Z M 76.02813617156215 0.5 L 92.61095984312429 0.5 L 92.61095984312429 3.5 L 99.61095984312429 0 L 92.61095984312429 -3.5 L 92.61095984312429 -0.5 L 76.02813617156215 -0.5 Z"/><text text-anchor="middle" pointer-events="none" font-size="8px" fill="#000000" x="58.805479921562146" y="3" transform="rotate(180 58.805479921562146 0)" font-family="sans-serif">ORIGIN</text></g><g class="relationship" transform="translate(79.28030147449805 252.0291923808366) rotate(445.87423124497025)"><path class="outline" fill="#A5ABB6" stroke="none" d="M 25 0.5 L 42.62443293114609 0.5 L 42.62443293114609 -0.5 L 25 -0.5 Z M 101.81193293114609 0.5 L 119.43636586229218 0.5 L 119.43636586229218 3.5 L 126.43636586229218 0 L 119.43636586229218 -3.5 L 119.43636586229218 -0.5 L 101.81193293114609 -0.5 Z"/><text text-anchor="middle" pointer-events="none" font-size="8px" fill="#000000" x="72.21818293114609" y="3" font-family="sans-serif">DESTINATION</text></g><g class="relationship" transform="translate(223.62449663889657 196.628174835645) rotate(204.14823184033662)"><path class="outline" fill="#A5ABB6" stroke="none" d="M 25 0.5 L 63.44461372920816 0.5 L 63.44461372920816 -0.5 L 25 -0.5 Z M 97.88992622920816 0.5 L 136.33453995841631 0.5 L 136.33453995841631 3.5 L 143.33453995841631 0 L 136.33453995841631 -3.5 L 136.33453995841631 -0.5 L 97.88992622920816 -0.5 Z"/><text text-anchor="middle" pointer-events="none" font-size="8px" fill="#000000" x="80.66726997920816" y="3" transform="rotate(180 80.66726997920816 0)" font-family="sans-serif">ORIGIN</text></g><g class="relationship" transform="translate(223.62449663889657 196.628174835645) rotate(386.5006125175098)"><path class="outline" fill="#A5ABB6" stroke="none" d="M 25 0.5 L 44.45023580397084 0.5 L 44.45023580397084 -0.5 L 25 -0.5 Z M 103.63773580397084 0.5 L 123.08797160794168 0.5 L 123.08797160794168 3.5 L 130.08797160794168 0 L 123.08797160794168 -3.5 L 123.08797160794168 -0.5 L 103.63773580397084 -0.5 Z"/><text text-anchor="middle" pointer-events="none" font-size="8px" fill="#000000" x="74.04398580397084" y="3" font-family="sans-serif">DESTINATION</text></g><g class="relationship" transform="translate(112.8164014238804 301.5311624592782) rotate(256.16459043266946)"><path class="outline" fill="#A5ABB6" stroke="none" d="M 25 0.5 L 68.757683911961 0.5 L 68.757683911961 -0.5 L 25 -0.5 Z M 103.202996411961 0.5 L 146.960680323922 0.5 L 146.960680323922 3.5 L 153.960680323922 0 L 146.960680323922 -3.5 L 146.960680323922 -0.5 L 103.202996411961 -0.5 Z"/><text text-anchor="middle" pointer-events="none" font-size="8px" fill="#000000" x="85.980340161961" y="3" transform="rotate(180 85.980340161961 0)" font-family="sans-serif">ORIGIN</text></g><g class="relationship" transform="translate(112.8164014238804 301.5311624592782) rotate(462.5696535315753)"><path class="outline" fill="#A5ABB6" stroke="none" d="M 25 0.5 L 26.849759851386203 0.5 L 26.849759851386203 -0.5 L 25 -0.5 Z M 70.18569735138621 0.5 L 72.0354572027724 0.5 L 72.0354572027724 3.5 L 79.0354572027724 0 L 72.0354572027724 -3.5 L 72.0354572027724 -0.5 L 70.18569735138621 -0.5 Z"/><text text-anchor="middle" pointer-events="none" font-size="8px" fill="#000000" x="48.5177286013862" y="3" transform="rotate(180 48.5177286013862 0)" font-family="sans-serif">DESTIN…</text></g><g class="relationship" transform="translate(98.1132567687437 -32.64470022248511) rotate(459.93354595250685)"><path class="outline" fill="#A5ABB6" stroke="none" d="M 25 0.5 L 60.701730998512375 0.5 L 60.701730998512375 -0.5 L 25 -0.5 Z M 95.14704349851237 0.5 L 130.84877449702475 0.5 L 130.84877449702475 3.5 L 137.84877449702475 0 L 130.84877449702475 -3.5 L 130.84877449702475 -0.5 L 95.14704349851237 -0.5 Z"/><text text-anchor="middle" pointer-events="none" font-size="8px" fill="#000000" x="77.92438724851237" y="3" transform="rotate(180 77.92438724851237 0)" font-family="sans-serif">ORIGIN</text></g><g class="relationship" transform="translate(98.1132567687437 -32.64470022248511) rotate(283.6785780895765)"><path class="outline" fill="#A5ABB6" stroke="none" d="M 25 0.5 L 46.59719777920931 0.5 L 46.59719777920931 -0.5 L 25 -0.5 Z M 105.78469777920931 0.5 L 127.38189555841862 0.5 L 127.38189555841862 3.5 L 134.38189555841862 0 L 127.38189555841862 -3.5 L 127.38189555841862 -0.5 L 105.78469777920931 -0.5 Z"/><text text-anchor="middle" pointer-events="none" font-size="8px" fill="#000000" x="76.19094777920931" y="3" font-family="sans-serif">DESTINATION</text></g><g class="relationship" transform="translate(219.53794039171532 5.546840833991242) rotate(500.7372866804596)"><path class="outline" fill="#A5ABB6" stroke="none" d="M 25 0.5 L 75.83311819149661 0.5 L 75.83311819149661 -0.5 L 25 -0.5 Z M 110.27843069149661 0.5 L 161.11154888299322 0.5 L 161.11154888299322 3.5 L 168.11154888299322 0 L 161.11154888299322 -3.5 L 161.11154888299322 -0.5 L 110.27843069149661 -0.5 Z"/><text text-anchor="middle" pointer-events="none" font-size="8px" fill="#000000" x="93.05577444149661" y="3" transform="rotate(180 93.05577444149661 0)" font-family="sans-serif">ORIGIN</text></g><g class="relationship" transform="translate(219.53794039171532 5.546840833991242) rotate(320.8472595989746)"><path class="outline" fill="#A5ABB6" stroke="none" d="M 25 0.5 L 26.291042673099852 0.5 L 26.291042673099852 -0.5 L 25 -0.5 Z M 69.62698017309985 0.5 L 70.9180228461997 0.5 L 70.9180228461997 3.5 L 77.9180228461997 0 L 70.9180228461997 -3.5 L 70.9180228461997 -0.5 L 69.62698017309985 -0.5 Z"/><text text-anchor="middle" pointer-events="none" font-size="8px" fill="#000000" x="47.95901142309985" y="3" font-family="sans-serif">DESTIN…</text></g><g class="relationship" transform="translate(-39.64979424389075 59.028781236553954) rotate(392.0766196453436)"><path class="outline" fill="#A5ABB6" stroke="none" d="M 25 0.5 L 43.99213075406438 0.5 L 43.99213075406438 -0.5 L 25 -0.5 Z M 78.43744325406438 0.5 L 97.42957400812875 0.5 L 97.42957400812875 3.5 L 104.42957400812875 0 L 97.42957400812875 -3.5 L 97.42957400812875 -0.5 L 78.43744325406438 -0.5 Z"/><text text-anchor="middle" pointer-events="none" font-size="8px" fill="#000000" x="61.21478700406438" y="3" font-family="sans-serif">ORIGIN</text></g><g class="relationship" transform="translate(-39.64979424389075 59.028781236553954) rotate(217.29021736853383)"><path class="outline" fill="#A5ABB6" stroke="none" d="M 25 0.5 L 47.24201411814275 0.5 L 47.24201411814275 -0.5 L 25 -0.5 Z M 106.42951411814275 0.5 L 128.6715282362855 0.5 L 128.6715282362855 3.5 L 135.6715282362855 0 L 128.6715282362855 -3.5 L 128.6715282362855 -0.5 L 106.42951411814275 -0.5 Z"/><text text-anchor="middle" pointer-events="none" font-size="8px" fill="#000000" x="76.83576411814275" y="3" transform="rotate(180 76.83576411814275 0)" font-family="sans-serif">DESTINATION</text></g><g class="relationship" transform="translate(38.12423792057058 -32.49915299547924) rotate(438.7436088199198)"><path class="outline" fill="#A5ABB6" stroke="none" d="M 25 0.5 L 60.979954525029555 0.5 L 60.979954525029555 -0.5 L 25 -0.5 Z M 95.42526702502956 0.5 L 131.4052215500591 0.5 L 131.4052215500591 3.5 L 138.4052215500591 0 L 131.4052215500591 -3.5 L 131.4052215500591 -0.5 L 95.42526702502956 -0.5 Z"/><text text-anchor="middle" pointer-events="none" font-size="8px" fill="#000000" x="78.20261077502956" y="3" font-family="sans-serif">ORIGIN</text></g><g class="relationship" transform="translate(38.12423792057058 -32.49915299547924) rotate(254.83474118989722)"><path class="outline" fill="#A5ABB6" stroke="none" d="M 25 0.5 L 45.37848798527918 0.5 L 45.37848798527918 -0.5 L 25 -0.5 Z M 104.56598798527918 0.5 L 124.94447597055836 0.5 L 124.94447597055836 3.5 L 131.94447597055836 0 L 124.94447597055836 -3.5 L 124.94447597055836 -0.5 L 104.56598798527918 -0.5 Z"/><text text-anchor="middle" pointer-events="none" font-size="8px" fill="#000000" x="74.97223798527918" y="3" transform="rotate(180 74.97223798527918 0)" font-family="sans-serif">DESTINATION</text></g><g class="relationship" transform="translate(139.08558274411385 247.80643406464404) rotate(240.0869106813418)"><path class="outline" fill="#A5ABB6" stroke="none" d="M 25 0.5 L 48.52404640943469 0.5 L 48.52404640943469 -0.5 L 25 -0.5 Z M 82.96935890943469 0.5 L 106.49340531886938 0.5 L 106.49340531886938 3.5 L 113.49340531886938 0 L 106.49340531886938 -3.5 L 106.49340531886938 -0.5 L 82.96935890943469 -0.5 Z"/><text text-anchor="middle" pointer-events="none" font-size="8px" fill="#000000" x="65.74670265943469" y="3" transform="rotate(180 65.74670265943469 0)" font-family="sans-serif">ORIGIN</text></g><g class="relationship" transform="translate(139.08558274411385 247.80643406464404) rotate(467.48477331233073)"><path class="outline" fill="#A5ABB6" stroke="none" d="M 25 0.5 L 48.30025115404176 0.5 L 48.30025115404176 -0.5 L 25 -0.5 Z M 107.48775115404176 0.5 L 130.78800230808352 0.5 L 130.78800230808352 3.5 L 137.78800230808352 0 L 130.78800230808352 -3.5 L 130.78800230808352 -0.5 L 107.48775115404176 -0.5 Z"/><text text-anchor="middle" pointer-events="none" font-size="8px" fill="#000000" x="77.89400115404176" y="3" transform="rotate(180 77.89400115404176 0)" font-family="sans-serif">DESTINATION</text></g><g class="relationship" transform="translate(164.86749185174546 -18.844666566592842) rotate(482.90055760338237)"><path class="outline" fill="#A5ABB6" stroke="none" d="M 25 0.5 L 66.58370812953123 0.5 L 66.58370812953123 -0.5 L 25 -0.5 Z M 101.02902062953123 0.5 L 142.61272875906246 0.5 L 142.61272875906246 3.5 L 149.61272875906246 0 L 142.61272875906246 -3.5 L 142.61272875906246 -0.5 L 101.02902062953123 -0.5 Z"/><text text-anchor="middle" pointer-events="none" font-size="8px" fill="#000000" x="83.80636437953123" y="3" transform="rotate(180 83.80636437953123 0)" font-family="sans-serif">ORIGIN</text></g><g class="relationship" transform="translate(164.86749185174546 -18.844666566592842) rotate(343.2046711924347)"><path class="outline" fill="#A5ABB6" stroke="none" d="M 25 0.5 L 37.14221612587593 0.5 L 37.14221612587593 -0.5 L 25 -0.5 Z M 96.32971612587593 0.5 L 108.47193225175187 0.5 L 108.47193225175187 3.5 L 115.47193225175187 0 L 108.47193225175187 -3.5 L 108.47193225175187 -0.5 L 96.32971612587593 -0.5 Z"/><text text-anchor="middle" pointer-events="none" font-size="8px" fill="#000000" x="66.73596612587593" y="3" font-family="sans-serif">DESTINATION</text></g><g class="relationship" transform="translate(-29.412852099075025 -8.09185414322886) rotate(413.79911505994716)"><path class="outline" fill="#A5ABB6" stroke="none" d="M 25 0.5 L 63.4550374400842 0.5 L 63.4550374400842 -0.5 L 25 -0.5 Z M 97.9003499400842 0.5 L 136.3553873801684 0.5 L 136.3553873801684 3.5 L 143.3553873801684 0 L 136.3553873801684 -3.5 L 136.3553873801684 -0.5 L 97.9003499400842 -0.5 Z"/><text text-anchor="middle" pointer-events="none" font-size="8px" fill="#000000" x="80.6776936900842" y="3" font-family="sans-serif">ORIGIN</text></g><g class="relationship" transform="translate(-29.412852099075025 -8.09185414322886) rotate(192.34749577518102)"><path class="outline" fill="#A5ABB6" stroke="none" d="M 25 0.5 L 37.57261071042704 0.5 L 37.57261071042704 -0.5 L 25 -0.5 Z M 96.76011071042704 0.5 L 109.33272142085409 0.5 L 109.33272142085409 3.5 L 116.33272142085409 0 L 109.33272142085409 -3.5 L 109.33272142085409 -0.5 L 96.76011071042704 -0.5 Z"/><text text-anchor="middle" pointer-events="none" font-size="8px" fill="#000000" x="67.16636071042704" y="3" transform="rotate(180 67.16636071042704 0)" font-family="sans-serif">DESTINATION</text></g><g class="relationship" transform="translate(53.08695026981042 305.7968084045868) rotate(275.43341591293006)"><path class="outline" fill="#A5ABB6" stroke="none" d="M 25 0.5 L 68.69615170571728 0.5 L 68.69615170571728 -0.5 L 25 -0.5 Z M 103.14146420571728 0.5 L 146.83761591143457 0.5 L 146.83761591143457 3.5 L 153.83761591143457 0 L 146.83761591143457 -3.5 L 146.83761591143457 -0.5 L 103.14146420571728 -0.5 Z"/><text text-anchor="middle" pointer-events="none" font-size="8px" fill="#000000" x="85.91880795571728" y="3" font-family="sans-serif">ORIGIN</text></g><g class="relationship" transform="translate(53.08695026981042 305.7968084045868) rotate(429.1296208496683)"><path class="outline" fill="#A5ABB6" stroke="none" d="M 25 0.5 L 26.88547458659665 0.5 L 26.88547458659665 -0.5 L 25 -0.5 Z M 70.22141208659664 0.5 L 72.1068866731933 0.5 L 72.1068866731933 3.5 L 79.1068866731933 0 L 72.1068866731933 -3.5 L 72.1068866731933 -0.5 L 70.22141208659664 -0.5 Z"/><text text-anchor="middle" pointer-events="none" font-size="8px" fill="#000000" x="48.55344333659665" y="3" font-family="sans-serif">DESTIN…</text></g><g class="relationship" transform="translate(-70.56006778140971 214.87581984403099) rotate(328.2149557984924)"><path class="outline" fill="#A5ABB6" stroke="none" d="M 25 0.5 L 61.969086699360915 0.5 L 61.969086699360915 -0.5 L 25 -0.5 Z M 96.41439919936091 0.5 L 133.38348589872183 0.5 L 133.38348589872183 3.5 L 140.38348589872183 0 L 133.38348589872183 -3.5 L 133.38348589872183 -0.5 L 96.41439919936091 -0.5 Z"/><text text-anchor="middle" pointer-events="none" font-size="8px" fill="#000000" x="79.19174294936091" y="3" font-family="sans-serif">ORIGIN</text></g><g class="relationship" transform="translate(-70.56006778140971 214.87581984403099) rotate(530.4414411973123)"><path class="outline" fill="#A5ABB6" stroke="none" d="M 25 0.5 L 35.02432272879571 0.5 L 35.02432272879571 -0.5 L 25 -0.5 Z M 94.21182272879571 0.5 L 104.23614545759142 0.5 L 104.23614545759142 3.5 L 111.23614545759142 0 L 104.23614545759142 -3.5 L 104.23614545759142 -0.5 L 94.21182272879571 -0.5 Z"/><text text-anchor="middle" pointer-events="none" font-size="8px" fill="#000000" x="64.61807272879571" y="3" transform="rotate(180 64.61807272879571 0)" font-family="sans-serif">DESTINATION</text></g><g class="relationship" transform="translate(-92.70706108639666 159.23373216297128) rotate(349.05432941736603)"><path class="outline" fill="#A5ABB6" stroke="none" d="M 25 0.5 L 62.14894774412406 0.5 L 62.14894774412406 -0.5 L 25 -0.5 Z M 96.59426024412406 0.5 L 133.74320798824812 0.5 L 133.74320798824812 3.5 L 140.74320798824812 0 L 133.74320798824812 -3.5 L 133.74320798824812 -0.5 L 96.59426024412406 -0.5 Z"/><text text-anchor="middle" pointer-events="none" font-size="8px" fill="#000000" x="79.37160399412406" y="3" font-family="sans-serif">ORIGIN</text></g><g class="relationship" transform="translate(-92.70706108639666 159.23373216297128) rotate(505.10183680581196)"><path class="outline" fill="#A5ABB6" stroke="none" d="M 25 0.5 L 35.305285764698084 0.5 L 35.305285764698084 -0.5 L 25 -0.5 Z M 94.49278576469808 0.5 L 104.79807152939617 0.5 L 104.79807152939617 3.5 L 111.79807152939617 0 L 104.79807152939617 -3.5 L 104.79807152939617 -0.5 L 94.49278576469808 -0.5 Z"/><text text-anchor="middle" pointer-events="none" font-size="8px" fill="#000000" x="64.89903576469808" y="3" transform="rotate(180 64.89903576469808 0)" font-family="sans-serif">DESTINATION</text></g><g class="relationship" transform="translate(19.512999955267862 256.39980270332495) rotate(291.4368921558271)"><path class="outline" fill="#A5ABB6" stroke="none" d="M 25 0.5 L 48.376085893182406 0.5 L 48.376085893182406 -0.5 L 25 -0.5 Z M 82.8213983931824 0.5 L 106.19748428636481 0.5 L 106.19748428636481 3.5 L 113.19748428636481 0 L 106.19748428636481 -3.5 L 106.19748428636481 -0.5 L 82.8213983931824 -0.5 Z"/><text text-anchor="middle" pointer-events="none" font-size="8px" fill="#000000" x="65.5987421431824" y="3" font-family="sans-serif">ORIGIN</text></g><g class="relationship" transform="translate(19.512999955267862 256.39980270332495) rotate(424.2767083828311)"><path class="outline" fill="#A5ABB6" stroke="none" d="M 25 0.5 L 48.309960212283855 0.5 L 48.309960212283855 -0.5 L 25 -0.5 Z M 107.49746021228385 0.5 L 130.8074204245677 0.5 L 130.8074204245677 3.5 L 137.8074204245677 0 L 130.8074204245677 -3.5 L 130.8074204245677 -0.5 L 107.49746021228385 -0.5 Z"/><text text-anchor="middle" pointer-events="none" font-size="8px" fill="#000000" x="77.90371021228385" y="3" font-family="sans-serif">DESTINATION</text></g><g class="relationship" transform="translate(-83.15484515207822 18.239983739160625) rotate(395.5652853326984)"><path class="outline" fill="#A5ABB6" stroke="none" d="M 25 0.5 L 73.42886735346931 0.5 L 73.42886735346931 -0.5 L 25 -0.5 Z M 107.87417985346931 0.5 L 156.30304720693863 0.5 L 156.30304720693863 3.5 L 163.30304720693863 0 L 156.30304720693863 -3.5 L 156.30304720693863 -0.5 L 107.87417985346931 -0.5 Z"/><text text-anchor="middle" pointer-events="none" font-size="8px" fill="#000000" x="90.65152360346931" y="3" font-family="sans-serif">ORIGIN</text></g><g class="relationship" transform="translate(-83.15484515207822 18.239983739160625) rotate(213.84976844143682)"><path class="outline" fill="#A5ABB6" stroke="none" d="M 25 0.5 L 25.597482902003208 0.5 L 25.597482902003208 -0.5 L 25 -0.5 Z M 68.93342040200321 0.5 L 69.53090330400642 0.5 L 69.53090330400642 3.5 L 76.53090330400642 0 L 69.53090330400642 -3.5 L 69.53090330400642 -0.5 L 68.93342040200321 -0.5 Z"/><text text-anchor="middle" pointer-events="none" font-size="8px" fill="#000000" x="47.26545165200321" y="3" transform="rotate(180 47.26545165200321 0)" font-family="sans-serif">DESTIN…</text></g><g class="relationship" transform="translate(-96.87072317904605 76.65281768366297) rotate(377.0270036862425)"><path class="outline" fill="#A5ABB6" stroke="none" d="M 25 0.5 L 66.5485217038892 0.5 L 66.5485217038892 -0.5 L 25 -0.5 Z M 100.9938342038892 0.5 L 142.5423559077784 0.5 L 142.5423559077784 3.5 L 149.5423559077784 0 L 142.5423559077784 -3.5 L 142.5423559077784 -0.5 L 100.9938342038892 -0.5 Z"/><text text-anchor="middle" pointer-events="none" font-size="8px" fill="#000000" x="83.7711779538892" y="3" font-family="sans-serif">ORIGIN</text></g><g class="relationship" transform="translate(-96.87072317904605 76.65281768366297) rotate(238.44438817170942)"><path class="outline" fill="#A5ABB6" stroke="none" d="M 25 0.5 L 34.364819498158454 0.5 L 34.364819498158454 -0.5 L 25 -0.5 Z M 93.55231949815845 0.5 L 102.91713899631691 0.5 L 102.91713899631691 3.5 L 109.91713899631691 0 L 102.91713899631691 -3.5 L 102.91713899631691 -0.5 L 93.55231949815845 -0.5 Z"/><text text-anchor="middle" pointer-events="none" font-size="8px" fill="#000000" x="63.958569498158454" y="3" transform="rotate(180 63.958569498158454 0)" font-family="sans-serif">DESTINATION</text></g><g class="relationship" transform="translate(-6.721815989451956 310.0763831982576) rotate(292.8280649332162)"><path class="outline" fill="#A5ABB6" stroke="none" d="M 25 0.5 L 78.18097466713994 0.5 L 78.18097466713994 -0.5 L 25 -0.5 Z M 112.62628716713994 0.5 L 165.80726183427987 0.5 L 165.80726183427987 3.5 L 172.80726183427987 0 L 165.80726183427987 -3.5 L 165.80726183427987 -0.5 L 112.62628716713994 -0.5 Z"/><text text-anchor="middle" pointer-events="none" font-size="8px" fill="#000000" x="95.40363091713994" y="3" font-family="sans-serif">ORIGIN</text></g><g class="relationship" transform="translate(-6.721815989451956 310.0763831982576) rotate(403.823247635099)"><path class="outline" fill="#A5ABB6" stroke="none" d="M 25 0.5 L 34.05811367613032 0.5 L 34.05811367613032 -0.5 L 25 -0.5 Z M 93.24561367613032 0.5 L 102.30372735226064 0.5 L 102.30372735226064 3.5 L 109.30372735226064 0 L 102.30372735226064 -3.5 L 102.30372735226064 -0.5 L 93.24561367613032 -0.5 Z"/><text text-anchor="middle" pointer-events="none" font-size="8px" fill="#000000" x="63.65186367613032" y="3" font-family="sans-serif">DESTINATION</text></g><g class="relationship" transform="translate(229.88027505709076 64.47177649077348) rotate(518.4005755630942)"><path class="outline" fill="#A5ABB6" stroke="none" d="M 25 0.5 L 65.24356763502087 0.5 L 65.24356763502087 -0.5 L 25 -0.5 Z M 99.68888013502087 0.5 L 139.93244777004173 0.5 L 139.93244777004173 3.5 L 146.93244777004173 0 L 139.93244777004173 -3.5 L 139.93244777004173 -0.5 L 99.68888013502087 -0.5 Z"/><text text-anchor="middle" pointer-events="none" font-size="8px" fill="#000000" x="82.46622388502087" y="3" transform="rotate(180 82.46622388502087 0)" font-family="sans-serif">ORIGIN</text></g><g class="relationship" transform="translate(229.88027505709076 64.47177649077348) rotate(299.27680376201795)"><path class="outline" fill="#A5ABB6" stroke="none" d="M 25 0.5 L 37.93168590288596 0.5 L 37.93168590288596 -0.5 L 25 -0.5 Z M 97.11918590288596 0.5 L 110.05087180577192 0.5 L 110.05087180577192 3.5 L 117.05087180577192 0 L 110.05087180577192 -3.5 L 110.05087180577192 -0.5 L 97.11918590288596 -0.5 Z"/><text text-anchor="middle" pointer-events="none" font-size="8px" fill="#000000" x="67.52543590288596" y="3" font-family="sans-serif">DESTINATION</text></g><g class="relationship" transform="translate(171.26809043335493 40.711450337628236) rotate(499.3114034819577)"><path class="outline" fill="#A5ABB6" stroke="none" d="M 25 0.5 L 46.03983277276396 0.5 L 46.03983277276396 -0.5 L 25 -0.5 Z M 80.48514527276396 0.5 L 101.52497804552792 0.5 L 101.52497804552792 3.5 L 108.52497804552792 0 L 101.52497804552792 -3.5 L 101.52497804552792 -0.5 L 80.48514527276396 -0.5 Z"/><text text-anchor="middle" pointer-events="none" font-size="8px" fill="#000000" x="63.26248902276396" y="3" transform="rotate(180 63.26248902276396 0)" font-family="sans-serif">ORIGIN</text></g><g class="relationship" transform="translate(171.26809043335493 40.711450337628236) rotate(321.9779099356443)"><path class="outline" fill="#A5ABB6" stroke="none" d="M 25 0.5 L 48.19818116183269 0.5 L 48.19818116183269 -0.5 L 25 -0.5 Z M 107.3856811618327 0.5 L 130.5838623236654 0.5 L 130.5838623236654 3.5 L 137.5838623236654 0 L 130.5838623236654 -3.5 L 130.5838623236654 -0.5 L 107.3856811618327 -0.5 Z"/><text text-anchor="middle" pointer-events="none" font-size="8px" fill="#000000" x="77.7919311618327" y="3" font-family="sans-serif">DESTINATION</text></g></g><g class="layer nodes"><g class="node" transform="translate(70.02089216382876,127.76272605849273)"><circle class="outline" cx="0" cy="0" r="25" fill="#ECB5C9" stroke="#da7298" stroke-width="2px"/><text text-anchor="middle" pointer-events="none" font-family="sans-serif" dy="1.5625" font-size="25" fill="#2A2C34"/><text text-anchor="middle" pointer-events="none" x="0" y="5" font-size="10px" fill="#2A2C34" font-family="sans-serif"> LAX</text></g><g class="node" transform="translate(391.5915149183729,116.59641203108006)"><circle class="outline" cx="0" cy="0" r="25" fill="#ECB5C9" stroke="#da7298" stroke-width="2px"/><text text-anchor="middle" pointer-events="none" font-family="sans-serif" dy="1.5625" font-size="25" fill="#2A2C34"/><text text-anchor="middle" pointer-events="none" x="0" y="5" font-size="10px" fill="#2A2C34" font-family="sans-serif"> LAS</text></g><g class="node" transform="translate(90.17554765895437,403.07311485426186)"><circle class="outline" cx="0" cy="0" r="25" fill="#ECB5C9" stroke="#da7298" stroke-width="2px"/><text text-anchor="middle" pointer-events="none" font-family="sans-serif" dy="1.5625" font-size="25" fill="#2A2C34"/><text text-anchor="middle" pointer-events="none" x="0" y="5" font-size="10px" fill="#2A2C34" font-family="sans-serif"> ABQ</text></g><g class="node" transform="translate(362.41731171604243,265.82957236797034)"><circle class="outline" cx="0" cy="0" r="25" fill="#ECB5C9" stroke="#da7298" stroke-width="2px"/><text text-anchor="middle" pointer-events="none" font-family="sans-serif" dy="1.5625" font-size="25" fill="#2A2C34"/><text text-anchor="middle" pointer-events="none" x="0" y="5" font-size="10px" fill="#2A2C34" font-family="sans-serif"> IAH</text></g><g class="node" transform="translate(135.80307202435705,-187.50614299566993)"><circle class="outline" cx="0" cy="0" r="25" fill="#ECB5C9" stroke="#da7298" stroke-width="2px"/><text text-anchor="middle" pointer-events="none" font-family="sans-serif" dy="1.5625" font-size="25" fill="#2A2C34"/><text text-anchor="middle" pointer-events="none" x="0" y="5" font-size="10px" fill="#2A2C34" font-family="sans-serif"> EWR</text></g><g class="node" transform="translate(299.34732109926875,-59.43455787092802)"><circle class="outline" cx="0" cy="0" r="25" fill="#ECB5C9" stroke="#da7298" stroke-width="2px"/><text text-anchor="middle" pointer-events="none" font-family="sans-serif" dy="1.5625" font-size="25" fill="#2A2C34"/><text text-anchor="middle" pointer-events="none" x="0" y="5" font-size="10px" fill="#2A2C34" font-family="sans-serif"> FAT</text></g><g class="node" transform="translate(-167.47635625057396,-38.31447755076559)"><circle class="outline" cx="0" cy="0" r="25" fill="#ECB5C9" stroke="#da7298" stroke-width="2px"/><text text-anchor="middle" pointer-events="none" font-family="sans-serif" dy="1.5625" font-size="25" fill="#2A2C34"/><text text-anchor="middle" pointer-events="none" x="0" y="5" font-size="10px" fill="#2A2C34" font-family="sans-serif"> SMF</text></g><g class="node" transform="translate(-2.9330639100485003,-183.97808388708086)"><circle class="outline" cx="0" cy="0" r="25" fill="#ECB5C9" stroke="#da7298" stroke-width="2px"/><text text-anchor="middle" pointer-events="none" font-family="sans-serif" dy="1.5625" font-size="25" fill="#2A2C34"/><text text-anchor="middle" pointer-events="none" x="0" y="5" font-size="10px" fill="#2A2C34" font-family="sans-serif"> BOS</text></g><g class="node" transform="translate(-204.9047651637254,237.4985874553563)"><circle class="outline" cx="0" cy="0" r="25" fill="#ECB5C9" stroke="#da7298" stroke-width="2px"/><text text-anchor="middle" pointer-events="none" font-family="sans-serif" dy="1.5625" font-size="25" fill="#2A2C34"/><text text-anchor="middle" pointer-events="none" x="0" y="5" font-size="10px" fill="#2A2C34" font-family="sans-serif"> TUS</text></g><g class="node" transform="translate(235.4618029855686,131.9173946492733)"><circle class="outline" cx="0" cy="0" r="25" fill="#4C8EDA" stroke="#2870c2" stroke-width="2px"/><text text-anchor="middle" pointer-events="none" font-family="sans-serif" dy="1.5625" font-size="25" fill="#FFFFFF"/><text text-anchor="middle" pointer-events="none" x="0" y="5" font-size="10px" fill="#FFFFFF" font-family="sans-serif"> 11/29/20…</text></g><g class="node" transform="translate(172.6198321712827,297.2266733623135)"><circle class="outline" cx="0" cy="0" r="25" fill="#4C8EDA" stroke="#2870c2" stroke-width="2px"/><text text-anchor="middle" pointer-events="none" font-family="sans-serif" dy="1.5625" font-size="25" fill="#FFFFFF"/><text text-anchor="middle" pointer-events="none" x="0" y="5" font-size="10px" fill="#FFFFFF" font-family="sans-serif"> 11/3/2015</text></g><g class="node" transform="translate(79.28030147449805,252.0291923808366)"><circle class="outline" cx="0" cy="0" r="25" fill="#4C8EDA" stroke="#2870c2" stroke-width="2px"/><text text-anchor="middle" pointer-events="none" font-family="sans-serif" dy="1.5625" font-size="25" fill="#FFFFFF"/><text text-anchor="middle" pointer-events="none" x="0" y="5" font-size="10px" fill="#FFFFFF" font-family="sans-serif"> 11/1/2015</text></g><g class="node" transform="translate(223.62449663889657,196.628174835645)"><circle class="outline" cx="0" cy="0" r="25" fill="#4C8EDA" stroke="#2870c2" stroke-width="2px"/><text text-anchor="middle" pointer-events="none" font-family="sans-serif" dy="1.5625" font-size="25" fill="#FFFFFF"/><text text-anchor="middle" pointer-events="none" x="0" y="5" font-size="10px" fill="#FFFFFF" font-family="sans-serif"> 11/30/20…</text></g><g class="node" transform="translate(112.8164014238804,301.5311624592782)"><circle class="outline" cx="0" cy="0" r="25" fill="#4C8EDA" stroke="#2870c2" stroke-width="2px"/><text text-anchor="middle" pointer-events="none" font-family="sans-serif" dy="1.5625" font-size="25" fill="#FFFFFF"/><text text-anchor="middle" pointer-events="none" x="0" y="5" font-size="10px" fill="#FFFFFF" font-family="sans-serif"> 11/4/2015</text></g><g class="node" transform="translate(98.1132567687437,-32.64470022248511)"><circle class="outline" cx="0" cy="0" r="25" fill="#4C8EDA" stroke="#2870c2" stroke-width="2px"/><text text-anchor="middle" pointer-events="none" font-family="sans-serif" dy="1.5625" font-size="25" fill="#FFFFFF"/><text text-anchor="middle" pointer-events="none" x="0" y="5" font-size="10px" fill="#FFFFFF" font-family="sans-serif"> 11/29/20…</text></g><g class="node" transform="translate(219.53794039171532,5.546840833991242)"><circle class="outline" cx="0" cy="0" r="25" fill="#4C8EDA" stroke="#2870c2" stroke-width="2px"/><text text-anchor="middle" pointer-events="none" font-family="sans-serif" dy="1.5625" font-size="25" fill="#FFFFFF"/><text text-anchor="middle" pointer-events="none" x="0" y="5" font-size="10px" fill="#FFFFFF" font-family="sans-serif"> 11/2/2015</text></g><g class="node" transform="translate(-39.64979424389075,59.028781236553954)"><circle class="outline" cx="0" cy="0" r="25" fill="#4C8EDA" stroke="#2870c2" stroke-width="2px"/><text text-anchor="middle" pointer-events="none" font-family="sans-serif" dy="1.5625" font-size="25" fill="#FFFFFF"/><text text-anchor="middle" pointer-events="none" x="0" y="5" font-size="10px" fill="#FFFFFF" font-family="sans-serif"> 11/3/2015</text></g><g class="node" transform="translate(38.12423792057058,-32.49915299547924)"><circle class="outline" cx="0" cy="0" r="25" fill="#4C8EDA" stroke="#2870c2" stroke-width="2px"/><text text-anchor="middle" pointer-events="none" font-family="sans-serif" dy="1.5625" font-size="25" fill="#FFFFFF"/><text text-anchor="middle" pointer-events="none" x="0" y="5" font-size="10px" fill="#FFFFFF" font-family="sans-serif"> 11/29/20…</text></g><g class="node" transform="translate(139.08558274411385,247.80643406464404)"><circle class="outline" cx="0" cy="0" r="25" fill="#4C8EDA" stroke="#2870c2" stroke-width="2px"/><text text-anchor="middle" pointer-events="none" font-family="sans-serif" dy="1.5625" font-size="25" fill="#FFFFFF"/><text text-anchor="middle" pointer-events="none" x="0" y="5" font-size="10px" fill="#FFFFFF" font-family="sans-serif"> 11/2/2015</text></g><g class="node" transform="translate(164.86749185174546,-18.844666566592842)"><circle class="outline" cx="0" cy="0" r="25" fill="#4C8EDA" stroke="#2870c2" stroke-width="2px"/><text text-anchor="middle" pointer-events="none" font-family="sans-serif" dy="1.5625" font-size="25" fill="#FFFFFF"/><text text-anchor="middle" pointer-events="none" x="0" y="5" font-size="10px" fill="#FFFFFF" font-family="sans-serif"> 11/3/2015</text></g><g class="node" transform="translate(-29.412852099075025,-8.09185414322886)"><circle class="outline" cx="0" cy="0" r="25" fill="#4C8EDA" stroke="#2870c2" stroke-width="2px"/><text text-anchor="middle" pointer-events="none" font-family="sans-serif" dy="1.5625" font-size="25" fill="#FFFFFF"/><text text-anchor="middle" pointer-events="none" x="0" y="5" font-size="10px" fill="#FFFFFF" font-family="sans-serif"> 11/1/2015</text></g><g class="node" transform="translate(53.08695026981042,305.7968084045868)"><circle class="outline" cx="0" cy="0" r="25" fill="#4C8EDA" stroke="#2870c2" stroke-width="2px"/><text text-anchor="middle" pointer-events="none" font-family="sans-serif" dy="1.5625" font-size="25" fill="#FFFFFF"/><text text-anchor="middle" pointer-events="none" x="0" y="5" font-size="10px" fill="#FFFFFF" font-family="sans-serif"> 11/2/2015</text></g><g class="node" transform="translate(-70.56006778140971,214.87581984403099)"><circle class="outline" cx="0" cy="0" r="25" fill="#4C8EDA" stroke="#2870c2" stroke-width="2px"/><text text-anchor="middle" pointer-events="none" font-family="sans-serif" dy="1.5625" font-size="25" fill="#FFFFFF"/><text text-anchor="middle" pointer-events="none" x="0" y="5" font-size="10px" fill="#FFFFFF" font-family="sans-serif"> 11/2/2015</text></g><g class="node" transform="translate(-92.70706108639666,159.23373216297128)"><circle class="outline" cx="0" cy="0" r="25" fill="#4C8EDA" stroke="#2870c2" stroke-width="2px"/><text text-anchor="middle" pointer-events="none" font-family="sans-serif" dy="1.5625" font-size="25" fill="#FFFFFF"/><text text-anchor="middle" pointer-events="none" x="0" y="5" font-size="10px" fill="#FFFFFF" font-family="sans-serif"> 11/1/2015</text></g><g class="node" transform="translate(19.512999955267862,256.39980270332495)"><circle class="outline" cx="0" cy="0" r="25" fill="#4C8EDA" stroke="#2870c2" stroke-width="2px"/><text text-anchor="middle" pointer-events="none" font-family="sans-serif" dy="1.5625" font-size="25" fill="#FFFFFF"/><text text-anchor="middle" pointer-events="none" x="0" y="5" font-size="10px" fill="#FFFFFF" font-family="sans-serif"> 11/3/2015</text></g><g class="node" transform="translate(-83.15484515207822,18.239983739160625)"><circle class="outline" cx="0" cy="0" r="25" fill="#4C8EDA" stroke="#2870c2" stroke-width="2px"/><text text-anchor="middle" pointer-events="none" font-family="sans-serif" dy="1.5625" font-size="25" fill="#FFFFFF"/><text text-anchor="middle" pointer-events="none" x="0" y="5" font-size="10px" fill="#FFFFFF" font-family="sans-serif"> 11/4/2015</text></g><g class="node" transform="translate(-96.87072317904605,76.65281768366297)"><circle class="outline" cx="0" cy="0" r="25" fill="#4C8EDA" stroke="#2870c2" stroke-width="2px"/><text text-anchor="middle" pointer-events="none" font-family="sans-serif" dy="1.5625" font-size="25" fill="#FFFFFF"/><text text-anchor="middle" pointer-events="none" x="0" y="5" font-size="10px" fill="#FFFFFF" font-family="sans-serif"> 11/2/2015</text></g><g class="node" transform="translate(-6.721815989451956,310.0763831982576)"><circle class="outline" cx="0" cy="0" r="25" fill="#4C8EDA" stroke="#2870c2" stroke-width="2px"/><text text-anchor="middle" pointer-events="none" font-family="sans-serif" dy="1.5625" font-size="25" fill="#FFFFFF"/><text text-anchor="middle" pointer-events="none" x="0" y="5" font-size="10px" fill="#FFFFFF" font-family="sans-serif"> 11/1/2015</text></g><g class="node" transform="translate(229.88027505709076,64.47177649077348)"><circle class="outline" cx="0" cy="0" r="25" fill="#4C8EDA" stroke="#2870c2" stroke-width="2px"/><text text-anchor="middle" pointer-events="none" font-family="sans-serif" dy="1.5625" font-size="25" fill="#FFFFFF"/><text text-anchor="middle" pointer-events="none" x="0" y="5" font-size="10px" fill="#FFFFFF" font-family="sans-serif"> 11/1/2015</text></g><g class="node" transform="translate(171.26809043335493,40.711450337628236)"><circle class="outline" cx="0" cy="0" r="25" fill="#4C8EDA" stroke="#2870c2" stroke-width="2px"/><text text-anchor="middle" pointer-events="none" font-family="sans-serif" dy="1.5625" font-size="25" fill="#FFFFFF"/><text text-anchor="middle" pointer-events="none" x="0" y="5" font-size="10px" fill="#FFFFFF" font-family="sans-serif"> 11/4/2015</text></g></g></svg>